<svg width="800" height="600" xmlns="http://www.w3.org/2000/svg" version="1.1" class="icon">

 <g>
  <title>Layer 1</title>
  <path stroke="#0000bf" id="svg_1" d="m234.23248,142.41318c-13.35218,3.1714 -21.6086,15.55208 -18.38344,27.6888s16.64185,19.45535 29.99403,16.28394c13.35218,-3.1714 21.6086,-15.55208 18.38344,-27.6888c-3.16066,-12.13672 -16.64185,-19.39436 -29.99403,-16.28394zm158.29109,247.6745c10.83655,0 20.18953,3.35437 27.54291,10.00212c6.90185,6.70874 10.83655,15.24714 10.83655,25.79816s-3.9347,19.57732 -10.83655,26.22508c-7.8694,6.70874 -16.70635,10.00212 -27.54291,10.00212c-10.83655,0 -19.67351,-3.84228 -26.57536,-10.49003c-7.8694,-6.70874 -11.28808,-15.24714 -11.28808,-25.79816s3.41867,-19.08942 11.28808,-25.79816c6.90185,-6.58676 15.7388,-9.94113 26.57536,-9.94113zm216.21505,-60.01273l-431.91407,0l0,151.12962l17.99642,17.01581l395.92123,0l17.99642,-17.01581l0,-151.12962zm12.70715,-12.01474l0,168.14543l-25.4143,24.02949l-406.49977,0l-25.4143,-24.02949l0,-168.14543l457.32837,0zm22.31814,-24.02949l-501.96465,0l-3.09616,2.92745l0,198.33476l41.21761,38.97168l425.72175,0l41.21761,-38.97168l0,-198.33476l-3.09616,-2.92745zm-158.5491,-276.21714c23.15668,0 42.12065,17.62569 43.47522,39.88651l0.0645,2.56152l0,90.44602c16.83536,5.306 30.12304,7.86752 39.60502,7.86752c11.61059,0 27.73642,-3.90327 47.99045,-12.01474c12.90066,-5.12304 26.25284,6.22083 22.38264,19.02843l-28.05893,92.45864l48.829,0l25.4143,24.02949l0,228.21915l-63.53575,60.07372l-457.26387,0l-63.53575,-60.07372l0,-228.28014l25.4143,-24.02949l45.99085,0l-31.86463,-121.55018c-4.57973,-17.25976 7.67589,-35.00743 27.22039,-39.64256l88.75654,-20.91907c19.609,-4.63513 39.218,5.61095 43.73323,22.93169l41.54012,158.26528l0.19351,0.91483l74.88833,0l-31.80012,-91.84875c-4.32172,-12.44166 8.12742,-23.9685 20.83456,-20.06523l1.41907,0.48791c20.25403,8.11148 36.37986,12.01474 47.99045,12.01474c10.51404,0 24.76927,-3.1714 42.57218,-9.75817l0,-88.55537c0,-6.58676 -5.48278,-11.95376 -12.25563,-11.95376c-6.19232,0 -11.35258,4.51315 -12.19112,10.36805l-0.12901,1.64669l0,38.54476c0,8.41642 -7.03086,15.24714 -15.6743,15.24714c-7.99841,0 -14.64225,-5.91589 -15.54529,-13.47847l-0.12901,-1.76867l0,-38.54476c0.0645,-23.48059 19.609,-42.50902 43.66873,-42.50902z" fill="#0000ff"/>
  <path id="svg_5" d="m606.25172,312.47448" opacity="NaN" stroke-width="0" stroke="null" fill="#000000"/>
  <path d="m617.34015,237.62755c0,0 0,1.38606 4.15814,2.77211c4.1582,1.38606 7.69147,5.48207 12.47449,6.93027c3.9798,1.20499 7.82776,4.12007 13.8606,5.54422c2.69794,0.63689 5.37994,0.26375 9.70233,2.77211c2.68066,1.55565 5.29999,2.06004 8.31635,2.77211c2.69794,0.6369 5.34009,3.01202 6.9303,4.15817c2.51428,1.81216 4.15814,1.38605 6.93024,1.38605c2.77209,0 2.77209,2.77209 4.15814,2.77209c1.38611,0 1.79205,-0.40598 2.77216,-1.38605c0.9801,-0.98007 0,-1.38605 0,-4.15817c0,-2.77209 0,-5.5442 0,-8.31631c0,-5.54422 1.1535,-13.94093 0,-22.17686c-1.3996,-9.99312 -5.56219,-20.36151 -8.31635,-31.87926c-2.91895,-12.20711 -4.87836,-29.21083 -6.9303,-40.19557c-3.14807,-16.85303 -8.6604,-27.92809 -11.08838,-37.42347c-2.93372,-11.47333 -6.04431,-18.31686 -9.70239,-27.72108c-2.24713,-5.77695 -4.47424,-12.85855 -6.9303,-18.01871c-2.97839,-6.25759 -4.15814,-11.08843 -4.15814,-15.24659l-1.38605,-1.38605" id="svg_6" stroke-width="0" stroke="null" fill="none"/>
  <path d="m528.63269,44.966c0,1.38605 0,2.77211 0,2.77211c1.38605,4.15816 2.77209,8.31633 4.15814,11.08844c2.77209,5.54422 6.54773,11.39715 11.08844,16.63265c3.85291,4.44247 7.22369,7.92009 11.08844,11.08844c3.03174,2.48546 5.29993,4.83214 8.31635,5.54421c1.349,0.31844 1.79199,-0.98009 2.77209,0c1.96021,1.96017 0.85565,2.87762 1.38605,4.15816c0.75012,1.81097 2.95874,2.51077 6.9303,5.54422c3.48328,2.66048 8.79456,4.0455 15.24658,6.93027c6.32666,2.82873 11.20959,5.25862 18.01868,8.31633c5.65466,2.53931 13.86053,5.5442 19.40479,6.93027c5.54419,1.38605 12.47449,1.38605 16.63263,4.15816l2.77209,1.38605l2.77216,0" id="svg_7" stroke-width="0" stroke="null" fill="none"/>
 </g>
</svg>