<svg width="1024" height="600" xmlns="http://www.w3.org/2000/svg" version="1.1" class="icon">

 <g>
  <title>Layer 1</title>
  <path stroke="#0000bf" id="svg_1" d="m93.88726,193.49204c-7.77798,2.00198 -12.58755,9.81739 -10.70881,17.47881s9.69429,12.28137 17.47227,10.27939c7.77798,-2.00198 12.58755,-9.81739 10.70881,-17.47881c-1.84116,-7.66142 -9.69429,-12.24287 -17.47227,-10.27939zm92.20848,156.34683c6.31256,0 11.7609,2.11748 16.04443,6.31393c4.0205,4.23495 6.31256,9.6249 6.31256,16.28533s-2.29206,12.35837 -6.31256,16.55482c-4.58412,4.23495 -9.73187,6.31393 -16.04443,6.31393c-6.31256,0 -11.4603,-2.42547 -15.4808,-6.62193c-4.58412,-4.23495 -6.57558,-9.6249 -6.57558,-16.28533s1.99146,-12.05037 6.57558,-16.28533c4.0205,-4.15796 9.16824,-6.27543 15.4808,-6.27543zm125.95062,-37.88359l-251.60065,0l0,95.40198l10.48336,10.74139l230.63393,0l10.48336,-10.74139l0,-95.40198zm7.40223,-7.58442l0,106.14336l-14.80446,15.16884l-236.79619,0l-14.80446,-15.16884l0,-106.14336l266.40511,0zm13.00087,-15.16884l-292.40685,0l-1.80359,1.84798l0,125.20066l24.01028,24.60124l247.99347,0l24.01028,-24.60124l0,-125.20066l-1.80359,-1.84798zm-92.35878,-174.36463c13.48934,0 24.53632,11.12638 25.32539,25.17873l0.03757,1.61698l0,57.09489c9.80701,3.34946 17.54742,4.96645 23.07091,4.96645c6.76346,0 16.15715,-2.46397 27.95563,-7.58442c7.51495,-3.23397 15.29293,3.92696 13.03844,12.01187l-16.34502,58.36538l28.4441,0l14.80446,15.16884l0,144.06546l-37.01115,37.92209l-266.36754,0l-37.01115,-37.92209l0,-144.10396l14.80446,-15.16884l26.79081,0l-18.56194,-76.72968c-2.66781,-10.89538 4.4714,-22.09876 15.85655,-25.02473l51.70288,-13.20536c11.42273,-2.92597 22.84546,3.54196 25.47569,14.47585l24.19815,99.90643l0.11272,0.57749l43.62431,0l-18.52436,-57.98038c-2.51751,-7.85392 4.73442,-15.13034 12.13665,-12.66636l0.82664,0.308c11.79848,5.12045 21.19217,7.58442 27.95563,7.58442c6.12469,0 14.42871,-2.00198 24.79935,-6.15993l0,-55.9014c0,-4.15796 -3.19386,-7.54592 -7.13921,-7.54592c-3.60718,0 -6.61316,2.84897 -7.10163,6.54493l-0.07515,1.03949l0,24.33174c0,5.31294 -4.09565,9.6249 -9.13067,9.6249c-4.65927,0 -8.52947,-3.73446 -9.05552,-8.50841l-0.07515,-1.11649l0,-24.33174c0.03757,-14.82234 11.42273,-26.83421 25.43812,-26.83421z" fill="#0000ff"/>
  <text font-style="italic" font-weight="bold" transform="matrix(3.19075 0 0 8.05512 -1446.83 -3304.3)" stroke="null" xml:space="preserve" text-anchor="start" font-family="Noto Sans JP" font-size="24" stroke-width="0" id="svg_3" y="459.56795" x="577.07922" fill="#B8874D">失物招领管理系统</text>
  <path id="svg_5" d="m606.25172,312.47448" opacity="NaN" stroke-width="0" stroke="null" fill="#000000"/>
  <path d="m617.34015,237.62755c0,0 0,1.38606 4.15814,2.77211c4.1582,1.38606 7.69147,5.48207 12.47449,6.93027c3.9798,1.20499 7.82776,4.12007 13.8606,5.54422c2.69794,0.63689 5.37994,0.26375 9.70233,2.77211c2.68066,1.55565 5.29999,2.06004 8.31635,2.77211c2.69794,0.6369 5.34009,3.01202 6.9303,4.15817c2.51428,1.81216 4.15814,1.38605 6.93024,1.38605c2.77209,0 2.77209,2.77209 4.15814,2.77209c1.38611,0 1.79205,-0.40598 2.77216,-1.38605c0.9801,-0.98007 0,-1.38605 0,-4.15817c0,-2.77209 0,-5.5442 0,-8.31631c0,-5.54422 1.1535,-13.94093 0,-22.17686c-1.3996,-9.99312 -5.56219,-20.36151 -8.31635,-31.87926c-2.91895,-12.20711 -4.87836,-29.21083 -6.9303,-40.19557c-3.14807,-16.85303 -8.6604,-27.92809 -11.08838,-37.42347c-2.93372,-11.47333 -6.04431,-18.31686 -9.70239,-27.72108c-2.24713,-5.77695 -4.47424,-12.85855 -6.9303,-18.01871c-2.97839,-6.25759 -4.15814,-11.08843 -4.15814,-15.24659l-1.38605,-1.38605" id="svg_6" stroke-width="0" stroke="null" fill="none"/>
  <path d="m528.63269,44.966c0,1.38605 0,2.77211 0,2.77211c1.38605,4.15816 2.77209,8.31633 4.15814,11.08844c2.77209,5.54422 6.54773,11.39715 11.08844,16.63265c3.85291,4.44247 7.22369,7.92009 11.08844,11.08844c3.03174,2.48546 5.29993,4.83214 8.31635,5.54421c1.349,0.31844 1.79199,-0.98009 2.77209,0c1.96021,1.96017 0.85565,2.87762 1.38605,4.15816c0.75012,1.81097 2.95874,2.51077 6.9303,5.54422c3.48328,2.66048 8.79456,4.0455 15.24658,6.93027c6.32666,2.82873 11.20959,5.25862 18.01868,8.31633c5.65466,2.53931 13.86053,5.5442 19.40479,6.93027c5.54419,1.38605 12.47449,1.38605 16.63263,4.15816l2.77209,1.38605l2.77216,0" id="svg_7" stroke-width="0" stroke="null" fill="none"/>
 </g>
</svg>