<?xml version="1.0" standalone="no"?><!DOCTYPE svg PUBLIC "-//W3C//DTD SVG 1.1//EN" "http://www.w3.org/Graphics/SVG/1.1/DTD/svg11.dtd"><svg class="icon" width="200px" height="200.00px" viewBox="0 0 1024 1024" version="1.1" xmlns="http://www.w3.org/2000/svg"><path d="M749.76 265.92c-2.24-5.76-5.12-11.2-8.64-16.32-10.56-16.96-27.84-28.8-47.68-32-5.76-1.6-11.84-2.24-17.92-2.24h-320c-33.28 0.32-63.04 20.8-74.88 51.84l-85.12 188.16v320a80 80 0 0 0 80 80h480a80 80 0 0 0 80-80v-320l-85.76-189.44z m-234.24 469.44a40 40 0 1 1 0-80 40 40 0 0 1 0 80z m40-160a40 40 0 0 1-80 0v-200a40 40 0 0 1 80 0v200z" fill="#505050" /></svg>