<?xml version="1.0" standalone="no"?><!DOCTYPE svg PUBLIC "-//W3C//DTD SVG 1.1//EN" "http://www.w3.org/Graphics/SVG/1.1/DTD/svg11.dtd"><svg class="icon" width="200px" height="200.00px" viewBox="0 0 1024 1024" version="1.1" xmlns="http://www.w3.org/2000/svg"><path d="M624 528l35.968 9.856c63.936 17.664 133.632 1.6 182.144-46.912a185.856 185.856 0 0 0 51.648-160.32L826.24 398.272a96 96 0 0 1-135.744 0l-27.2-27.2a96 96 0 0 1 0-135.744l67.648-67.584a185.856 185.856 0 0 0-160.32 51.648 186.368 186.368 0 0 0-46.912 182.144l9.856 35.904-371.456 371.456 90.496 90.56 371.52-371.52z m159.616-413.056c21.12 7.168 41.536 17.088 60.672 29.888L708.48 280.576a32 32 0 0 0 0 45.248l27.2 27.2a32 32 0 0 0 45.248 0l135.744-135.808c12.8 19.136 22.72 39.552 29.824 60.672 29.824 88.32 10.24 188.928-59.136 258.304a250.368 250.368 0 0 1-244.416 63.36l-345.152 345.152a64 64 0 0 1-90.496 0l-90.496-90.496a64 64 0 0 1 0-90.56L461.952 418.56a250.368 250.368 0 0 1 63.36-244.48c69.376-69.312 169.984-88.96 258.304-59.136z" fill="#000000" fill-opacity=".9" /></svg>