<?xml version="1.0" standalone="no"?><!DOCTYPE svg PUBLIC "-//W3C//DTD SVG 1.1//EN" "http://www.w3.org/Graphics/SVG/1.1/DTD/svg11.dtd"><svg class="icon" width="200px" height="200.00px" viewBox="0 0 1024 1024" version="1.1" xmlns="http://www.w3.org/2000/svg"><path d="M903.9 204c-15.5 0-27.9 12.8-27.9 28.2v645.5c0 14.5-11.8 26.3-26.3 26.3H232.8c-46.5 0-84.8-37.4-84.8-83.9-0.1-47.6 36.4-84.1 84-84.1h526.9c33.7 0 61.1-27.4 61.1-61.1V120c0-30.8-25.2-56-56-56H260c-92.4 0-168 75.6-168 168v588c0 77.3 62.7 140 140 140h644c30.8 0 56-25.2 56-56V232c0-16.8-11.2-28-28.1-28zM148 232c0-61.6 50.4-112 112-112h476c15.5 0 28 12.5 28 28v496.5c0 19.6-15.9 35.5-35.5 35.5H232c-30.8 0-61.6 11.2-84 28V232z m83 560c-16.8 0-28 11.2-28 28s11.2 28 28 28h561c16.8 0 28-11.2 28-28s-11.2-28-28-28H231z" /></svg>