<?xml version="1.0" standalone="no"?><!DOCTYPE svg PUBLIC "-//W3C//DTD SVG 1.1//EN" "http://www.w3.org/Graphics/SVG/1.1/DTD/svg11.dtd"><svg t="1729689214772" class="icon" viewBox="0 0 1024 1024" version="1.1" xmlns="http://www.w3.org/2000/svg" p-id="29150" data-spm-anchor-id="a313x.search_index.0.i16.6ab63a81ne3lxk" xmlns:xlink="http://www.w3.org/1999/xlink" width="200" height="200"><path d="M965.632 800.64a108.672 108.672 0 0 0-94.464 107.84c0 12.736 3.072 24.768 5.76 32.96l-47.68 26.304a190.272 190.272 0 0 0-19.584-16.768c-21.12-15.616-41.472-23.552-60.608-23.552-19.008 0-39.296 7.808-60.16 23.104a192.704 192.704 0 0 0-19.52 16.448l-45.568-25.472c2.688-8.192 5.76-20.288 5.76-33.024 0-54.976-40.832-100.8-94.464-107.776a252.288 252.288 0 0 1-3.264-34.816c0-11.52 1.92-25.92 3.264-34.752a108.736 108.736 0 0 0 94.528-107.84c0-12.672-3.072-24.704-5.76-32.896l49.152-26.944c4.288 3.968 11.136 10.048 19.52 16 20.672 14.72 40.576 22.208 59.2 22.208 18.432 0 38.144-7.296 58.688-21.76 6.784-4.8 13.312-10.048 19.392-15.744l47.104 26.24c-2.688 8.128-5.76 20.224-5.76 32.896 0 55.04 40.832 100.8 94.464 107.84 1.408 9.024 3.328 23.424 3.328 34.752 0 11.456-1.92 25.792-3.328 34.816z m49.472-87.616c-3.776-19.904-16.512-32.768-32.96-32.768h-2.24a56.96 56.96 0 0 1-56.96-56.96c0-8.192 3.584-18.368 4.992-21.504a41.728 41.728 0 0 0-15.488-50.944l-66.56-36.864a44.928 44.928 0 0 0-48.64 9.664c-8.32 8.576-30.336 26.24-45.504 26.24-15.36 0-37.504-18.048-45.76-26.688a44.928 44.928 0 0 0-48.576-10.112l-1.28 0.512-67.712 37.184-1.6 1.024a41.216 41.216 0 0 0-14.08 49.792c0.576 1.28 5.12 12.288 5.12 21.76 0 31.36-25.6 56.896-56.96 56.896h-2.688c-16 0-28.8 12.8-32.576 32.768a336.768 336.768 0 0 0-5.632 52.864c0 22.272 5.056 49.792 5.632 52.928 3.776 19.84 16.576 32.768 32.96 32.768h2.24c31.424 0 56.96 25.6 56.96 56.96 0 8.192-3.584 18.304-4.992 21.504a41.792 41.792 0 0 0 15.424 50.944l65.344 36.416a44.16 44.16 0 0 0 48.96-10.24c8.064-8.768 30.912-27.904 46.464-27.904 15.808 0 38.4 19.2 46.848 28.416a44.288 44.288 0 0 0 50.56 9.856l65.984-36.48 1.6-1.088a41.216 41.216 0 0 0 14.016-49.728 65.664 65.664 0 0 1-5.056-21.76c0-31.36 25.6-56.896 56.96-56.896h2.56c16.064 0 28.864-12.864 32.64-32.704 0-0.32 5.632-29.568 5.632-52.992 0-22.208-5.056-49.792-5.632-52.864z m-265.856 101.312a48.832 48.832 0 1 1 0.128-97.6 48.832 48.832 0 0 1-0.128 97.6z m0-149.312c-55.424 0-100.544 45.12-100.544 100.544s45.12 100.608 100.48 100.608c55.488 0 100.608-45.12 100.608-100.608 0-55.424-45.12-100.544-100.544-100.544z" fill="#d81e06" p-id="29151" data-spm-anchor-id="a313x.search_index.0.i17.6ab63a81ne3lxk" class="selected"></path><path d="M442.56 0c143.808 0 260.8 116.16 260.8 259.008 0 79.744-36.48 153.92-100.096 203.584l-16.256 12.736c-33.28 29.696-96.96 39.552-139.008 42.88l-5.376-0.192c-11.968 0-23.744 0.64-35.392 1.728h-0.512c-190.144 18.048-339.52 177.6-339.52 371.2v56.96h416.832c10.944 23.744 24.576 46.08 40.64 66.688H33.6a33.472 33.472 0 0 1-33.6-33.28v-90.304C0 710.4 109.504 550.208 278.976 482.944l19.2-7.68-16.32-12.672a257.088 257.088 0 0 1-100.096-203.52C181.76 116.16 298.752 0 442.56 0z m0 66.624c-106.752 0-193.6 86.336-193.6 192.384 0 106.112 86.848 192.384 193.6 192.384S636.16 365.12 636.16 259.008c0-106.048-86.848-192.384-193.6-192.384z" fill="#1296db" p-id="29152" data-spm-anchor-id="a313x.search_index.0.i18.6ab63a81ne3lxk" class="selected"></path></svg>