<?xml version="1.0" standalone="no"?><!DOCTYPE svg PUBLIC "-//W3C//DTD SVG 1.1//EN" "http://www.w3.org/Graphics/SVG/1.1/DTD/svg11.dtd"><svg class="icon" width="200px" height="200.00px" viewBox="0 0 1024 1024" version="1.1" xmlns="http://www.w3.org/2000/svg"><path d="M187.75 243m79.88 0l503.24 0q79.88 0 79.88 79.88l0 337.24q0 79.88-79.88 79.88l-503.24 0q-79.88 0-79.88-79.88l0-337.24q0-79.88 79.88-79.88Z" fill="#6CA4F4" /><path d="M187.75 618h663v52.17c0 38.54-31.29 69.83-69.83 69.83H257.58c-38.54 0-69.83-31.29-69.83-69.83V618z" fill="#4384F7" /><path d="M378.25 785m30 0l222 0q30 0 30 30l0 0q0 30-30 30l-222 0q-30 0-30-30l0 0q0-30 30-30Z" fill="#4384F7" /><path d="M450.25 738h138v60h-138z" fill="#4384F7" /><path d="M363.57 564.57c-7.89 0-15.77-3.09-21.66-9.24-11.47-11.96-11.07-30.95 0.89-42.42l102.51-98.27c17.51-16.78 45.24-17.11 63.13-0.74l43.97 40.22 72.27-76.13H613.9c-16.57 0-30-13.43-30-30s13.43-30 30-30h55.13c16.39 0 31.16 9.73 37.63 24.79a40.903 40.903 0 0 1-7.93 44.36L586.59 505.26c-17.21 18.13-46.22 19.15-64.67 2.28l-44.43-40.64-93.17 89.32c-5.81 5.57-13.29 8.34-20.76 8.34z" fill="#FFFFFF" /></svg>